<svg width="1207" height="1190" viewBox="0 0 1207 1190" fill="none" xmlns="http://www.w3.org/2000/svg">
<mask id="path-1-outside-1_148_2" maskUnits="userSpaceOnUse" x="0" y="0" width="1207" height="1190" fill="black">
<rect fill="white" width="1207" height="1190"/>
<path d="M75.4937 553.015C63.7665 553.015 53.1194 550.364 43.5525 545.061C34.2942 540.347 26.8875 529.741 21.3325 513.243C15.7775 496.745 13 471.704 13 438.118V127.897C13 93.7224 15.7775 68.6808 21.3325 52.772C26.8875 36.274 34.4485 25.6681 44.0154 20.9544C53.891 15.6515 64.6923 13 76.4195 13C88.4554 13 99.1025 15.6515 108.361 20.9544C117.928 26.2573 125.489 37.1578 131.044 53.6558C136.599 69.5646 139.376 94.3117 139.376 127.897V205.673H131.97V124.362C131.97 96.0793 129.501 75.1622 124.563 61.6102C119.934 47.4691 113.453 38.3362 105.12 34.2117C96.7879 29.498 87.0666 27.1412 75.9566 27.1412C64.538 27.1412 54.6625 29.7926 46.33 35.0956C37.9975 39.8093 31.5167 49.5313 26.8875 64.2617C22.5669 78.4029 20.4067 100.204 20.4067 129.665V439.886C20.4067 468.168 22.8756 489.38 27.8133 503.521C33.0597 517.662 39.8492 527.09 48.1816 531.804C56.8228 536.517 66.0811 538.874 75.9566 538.874C86.758 538.874 96.325 536.517 104.657 531.804C113.299 527.09 119.934 517.662 124.563 503.521C129.501 489.38 131.97 468.168 131.97 439.886V375.367H139.376V438.118C139.376 472.293 136.599 497.629 131.044 514.127C125.489 530.036 117.928 540.347 108.361 545.061C98.7938 550.364 87.8382 553.015 75.4937 553.015Z"/>
<path d="M285.883 553.015C263.354 553.015 246.998 544.766 236.814 528.268C226.63 511.181 221.537 481.131 221.537 438.118V127.897C221.537 85.4734 226.63 55.7181 236.814 38.6308C247.306 21.5436 263.971 13 286.809 13C310.572 13 327.237 22.1328 336.804 40.3985C346.679 58.0749 351.617 87.2411 351.617 127.897V438.118C351.617 480.542 346.679 510.297 336.804 527.384C326.928 544.472 309.955 553.015 285.883 553.015ZM286.346 538.874C307.949 538.874 322.916 530.92 331.249 515.011C339.89 499.102 344.21 472.588 344.21 435.467V130.548C344.21 94.0171 339.89 67.797 331.249 51.8882C322.916 35.3902 307.949 27.1412 286.346 27.1412C265.052 27.1412 250.084 35.0956 241.443 51.0043C233.11 66.9131 228.944 93.4278 228.944 130.548V435.467C228.944 473.177 233.265 499.986 241.906 515.895C250.856 531.214 265.669 538.874 286.346 538.874Z"/>
<path d="M439.214 542.409V20.0706H516.058C529.328 20.0706 540.747 26.552 550.314 39.5147C560.189 51.8882 565.127 73.9837 565.127 105.801V179.159C565.127 203.316 562.813 223.055 558.183 238.375C553.554 253.105 547.691 264.3 540.593 271.96C533.803 279.03 526.551 283.45 518.836 285.217C523.773 286.396 528.711 293.172 533.649 305.545C538.587 317.329 542.136 330.292 544.296 344.433L576.237 542.409H568.368L540.13 365.645C536.426 342.666 531.334 324.105 524.853 309.964C518.373 295.823 509.423 288.753 498.004 288.753H446.621V542.409H439.214ZM446.621 274.611H502.633C518.373 274.611 531.489 267.541 541.981 253.4C552.474 239.258 557.721 215.101 557.721 180.926V108.453C557.721 83.1166 553.709 64.5563 545.685 52.772C537.661 40.3985 528.402 34.2117 517.91 34.2117H446.621V274.611Z"/>
<path d="M650.464 542.409V20.0706H660.648L773.6 516.779V20.0706H781.006V542.409H771.285L657.87 43.05V542.409H650.464Z"/>
<path d="M872.563 542.409V20.0706H985.978V34.2117H879.97V260.47H962.369V274.611H879.97V528.268H985.978V542.409H872.563Z"/>
<path d="M1053.98 542.409V20.0706H1130.82C1144.09 20.0706 1155.51 26.552 1165.08 39.5147C1174.95 51.8882 1179.89 73.9837 1179.89 105.801V179.159C1179.89 203.316 1177.58 223.055 1172.95 238.375C1168.32 253.105 1162.45 264.3 1155.36 271.96C1148.57 279.03 1141.31 283.45 1133.6 285.217C1138.54 286.396 1143.47 293.172 1148.41 305.545C1153.35 317.329 1156.9 330.292 1159.06 344.433L1191 542.409H1183.13L1154.89 365.645C1151.19 342.666 1146.1 324.105 1139.62 309.964C1133.14 295.823 1124.19 288.753 1112.77 288.753H1061.38V542.409H1053.98ZM1061.38 274.611H1117.4C1133.14 274.611 1146.25 267.541 1156.74 253.4C1167.24 239.258 1172.48 215.101 1172.48 180.926V108.453C1172.48 83.1166 1168.47 64.5563 1160.45 52.772C1152.42 40.3985 1143.17 34.2117 1132.67 34.2117H1061.38V274.611Z"/>
<path d="M164.623 1177C152.896 1177 142.558 1172.58 133.608 1163.74C124.658 1154.32 117.714 1138.41 112.777 1116.02C108.147 1093.63 105.833 1063.28 105.833 1024.98V1014.38H113.239V1024.98C113.239 1060.34 115.4 1088.03 119.72 1108.06C124.349 1128.1 130.522 1142.24 138.237 1150.49C145.952 1158.73 154.748 1162.86 164.623 1162.86C180.98 1162.86 194.558 1154.02 205.36 1136.34C216.161 1118.08 221.562 1085.97 221.562 1040.01C221.562 1009.37 218.784 986.094 213.229 970.186C207.983 953.687 200.731 941.019 191.472 932.181C182.523 923.343 172.647 915.094 161.846 907.434C150.736 899.185 141.014 890.052 132.682 880.036C124.658 869.43 118.332 855.878 113.702 839.38C109.382 822.882 107.222 800.786 107.222 773.093C107.222 733.616 111.696 702.093 120.646 678.524C129.904 654.956 145.181 643.171 166.475 643.171C184.992 643.171 199.651 652.893 210.452 672.337C221.253 691.781 226.654 719.18 226.654 754.533V789.886H219.247V758.068C219.247 726.251 214.618 701.504 205.36 683.827C196.102 666.151 183.14 657.312 166.475 657.312C147.341 657.312 133.916 668.508 126.201 690.898C118.486 712.699 114.628 740.097 114.628 773.093C114.628 800.197 116.943 821.409 121.572 836.728C126.51 852.048 132.836 863.832 140.552 872.081C148.575 880.33 157.062 887.99 166.012 895.061C180.825 906.256 192.861 917.156 202.119 927.762C211.378 938.368 218.167 952.214 222.488 969.302C226.808 985.8 228.969 1009.37 228.969 1040.01C228.969 1073.59 226.037 1100.4 220.173 1120.44C214.618 1140.47 206.903 1154.9 197.027 1163.74C187.46 1172.58 176.659 1177 164.623 1177Z"/>
<path d="M322.945 1169.05V660.848H271.561V646.707H382.198V660.848H330.352V1169.05H322.945Z"/>
<path d="M443.735 1169.05V646.707H520.579C533.849 646.707 545.268 653.188 554.835 666.151C564.71 678.524 569.648 700.62 569.648 732.437V805.795C569.648 829.952 567.333 849.691 562.704 865.011C558.075 879.741 552.211 890.936 545.113 898.596C538.324 905.667 531.071 910.086 523.356 911.853C528.294 913.032 533.232 919.808 538.17 932.181C543.107 943.965 546.656 956.928 548.817 971.069L580.758 1169.05H572.888L544.65 992.281C540.947 969.302 535.855 950.741 529.374 936.6C522.893 922.459 513.944 915.389 502.525 915.389H451.141V1169.05H443.735ZM451.141 901.247H507.154C522.893 901.247 536.009 894.177 546.502 880.036C556.995 865.894 562.241 841.737 562.241 807.562V735.089C562.241 709.753 558.229 691.192 550.205 679.408C542.181 667.035 532.923 660.848 522.43 660.848H451.141V901.247Z"/>
<path d="M654.984 1169.05V646.707H768.399V660.848H662.391V887.106H744.79V901.247H662.391V1154.9H768.399V1169.05H654.984Z"/>
<path d="M836.398 1169.05V646.707H949.812V660.848H843.805V887.106H926.204V901.247H843.805V1154.9H949.812V1169.05H836.398Z"/>
<path d="M1039.11 1169.05V660.848H987.722V646.707H1098.36V660.848H1046.51V1169.05H1039.11Z"/>
</mask>
<path d="M75.4937 553.015C63.7665 553.015 53.1194 550.364 43.5525 545.061C34.2942 540.347 26.8875 529.741 21.3325 513.243C15.7775 496.745 13 471.704 13 438.118V127.897C13 93.7224 15.7775 68.6808 21.3325 52.772C26.8875 36.274 34.4485 25.6681 44.0154 20.9544C53.891 15.6515 64.6923 13 76.4195 13C88.4554 13 99.1025 15.6515 108.361 20.9544C117.928 26.2573 125.489 37.1578 131.044 53.6558C136.599 69.5646 139.376 94.3117 139.376 127.897V205.673H131.97V124.362C131.97 96.0793 129.501 75.1622 124.563 61.6102C119.934 47.4691 113.453 38.3362 105.12 34.2117C96.7879 29.498 87.0666 27.1412 75.9566 27.1412C64.538 27.1412 54.6625 29.7926 46.33 35.0956C37.9975 39.8093 31.5167 49.5313 26.8875 64.2617C22.5669 78.4029 20.4067 100.204 20.4067 129.665V439.886C20.4067 468.168 22.8756 489.38 27.8133 503.521C33.0597 517.662 39.8492 527.09 48.1816 531.804C56.8228 536.517 66.0811 538.874 75.9566 538.874C86.758 538.874 96.325 536.517 104.657 531.804C113.299 527.09 119.934 517.662 124.563 503.521C129.501 489.38 131.97 468.168 131.97 439.886V375.367H139.376V438.118C139.376 472.293 136.599 497.629 131.044 514.127C125.489 530.036 117.928 540.347 108.361 545.061C98.7938 550.364 87.8382 553.015 75.4937 553.015Z" fill="white"/>
<path d="M285.883 553.015C263.354 553.015 246.998 544.766 236.814 528.268C226.63 511.181 221.537 481.131 221.537 438.118V127.897C221.537 85.4734 226.63 55.7181 236.814 38.6308C247.306 21.5436 263.971 13 286.809 13C310.572 13 327.237 22.1328 336.804 40.3985C346.679 58.0749 351.617 87.2411 351.617 127.897V438.118C351.617 480.542 346.679 510.297 336.804 527.384C326.928 544.472 309.955 553.015 285.883 553.015ZM286.346 538.874C307.949 538.874 322.916 530.92 331.249 515.011C339.89 499.102 344.21 472.588 344.21 435.467V130.548C344.21 94.0171 339.89 67.797 331.249 51.8882C322.916 35.3902 307.949 27.1412 286.346 27.1412C265.052 27.1412 250.084 35.0956 241.443 51.0043C233.11 66.9131 228.944 93.4278 228.944 130.548V435.467C228.944 473.177 233.265 499.986 241.906 515.895C250.856 531.214 265.669 538.874 286.346 538.874Z" fill="white"/>
<path d="M439.214 542.409V20.0706H516.058C529.328 20.0706 540.747 26.552 550.314 39.5147C560.189 51.8882 565.127 73.9837 565.127 105.801V179.159C565.127 203.316 562.813 223.055 558.183 238.375C553.554 253.105 547.691 264.3 540.593 271.96C533.803 279.03 526.551 283.45 518.836 285.217C523.773 286.396 528.711 293.172 533.649 305.545C538.587 317.329 542.136 330.292 544.296 344.433L576.237 542.409H568.368L540.13 365.645C536.426 342.666 531.334 324.105 524.853 309.964C518.373 295.823 509.423 288.753 498.004 288.753H446.621V542.409H439.214ZM446.621 274.611H502.633C518.373 274.611 531.489 267.541 541.981 253.4C552.474 239.258 557.721 215.101 557.721 180.926V108.453C557.721 83.1166 553.709 64.5563 545.685 52.772C537.661 40.3985 528.402 34.2117 517.91 34.2117H446.621V274.611Z" fill="white"/>
<path d="M650.464 542.409V20.0706H660.648L773.6 516.779V20.0706H781.006V542.409H771.285L657.87 43.05V542.409H650.464Z" fill="white"/>
<path d="M872.563 542.409V20.0706H985.978V34.2117H879.97V260.47H962.369V274.611H879.97V528.268H985.978V542.409H872.563Z" fill="white"/>
<path d="M1053.98 542.409V20.0706H1130.82C1144.09 20.0706 1155.51 26.552 1165.08 39.5147C1174.95 51.8882 1179.89 73.9837 1179.89 105.801V179.159C1179.89 203.316 1177.58 223.055 1172.95 238.375C1168.32 253.105 1162.45 264.3 1155.36 271.96C1148.57 279.03 1141.31 283.45 1133.6 285.217C1138.54 286.396 1143.47 293.172 1148.41 305.545C1153.35 317.329 1156.9 330.292 1159.06 344.433L1191 542.409H1183.13L1154.89 365.645C1151.19 342.666 1146.1 324.105 1139.62 309.964C1133.14 295.823 1124.19 288.753 1112.77 288.753H1061.38V542.409H1053.98ZM1061.38 274.611H1117.4C1133.14 274.611 1146.25 267.541 1156.74 253.4C1167.24 239.258 1172.48 215.101 1172.48 180.926V108.453C1172.48 83.1166 1168.47 64.5563 1160.45 52.772C1152.42 40.3985 1143.17 34.2117 1132.67 34.2117H1061.38V274.611Z" fill="white"/>
<path d="M164.623 1177C152.896 1177 142.558 1172.58 133.608 1163.74C124.658 1154.32 117.714 1138.41 112.777 1116.02C108.147 1093.63 105.833 1063.28 105.833 1024.98V1014.38H113.239V1024.98C113.239 1060.34 115.4 1088.03 119.72 1108.06C124.349 1128.1 130.522 1142.24 138.237 1150.49C145.952 1158.73 154.748 1162.86 164.623 1162.86C180.98 1162.86 194.558 1154.02 205.36 1136.34C216.161 1118.08 221.562 1085.97 221.562 1040.01C221.562 1009.37 218.784 986.094 213.229 970.186C207.983 953.687 200.731 941.019 191.472 932.181C182.523 923.343 172.647 915.094 161.846 907.434C150.736 899.185 141.014 890.052 132.682 880.036C124.658 869.43 118.332 855.878 113.702 839.38C109.382 822.882 107.222 800.786 107.222 773.093C107.222 733.616 111.696 702.093 120.646 678.524C129.904 654.956 145.181 643.171 166.475 643.171C184.992 643.171 199.651 652.893 210.452 672.337C221.253 691.781 226.654 719.18 226.654 754.533V789.886H219.247V758.068C219.247 726.251 214.618 701.504 205.36 683.827C196.102 666.151 183.14 657.312 166.475 657.312C147.341 657.312 133.916 668.508 126.201 690.898C118.486 712.699 114.628 740.097 114.628 773.093C114.628 800.197 116.943 821.409 121.572 836.728C126.51 852.048 132.836 863.832 140.552 872.081C148.575 880.33 157.062 887.99 166.012 895.061C180.825 906.256 192.861 917.156 202.119 927.762C211.378 938.368 218.167 952.214 222.488 969.302C226.808 985.8 228.969 1009.37 228.969 1040.01C228.969 1073.59 226.037 1100.4 220.173 1120.44C214.618 1140.47 206.903 1154.9 197.027 1163.74C187.46 1172.58 176.659 1177 164.623 1177Z" fill="white"/>
<path d="M322.945 1169.05V660.848H271.561V646.707H382.198V660.848H330.352V1169.05H322.945Z" fill="white"/>
<path d="M443.735 1169.05V646.707H520.579C533.849 646.707 545.268 653.188 554.835 666.151C564.71 678.524 569.648 700.62 569.648 732.437V805.795C569.648 829.952 567.333 849.691 562.704 865.011C558.075 879.741 552.211 890.936 545.113 898.596C538.324 905.667 531.071 910.086 523.356 911.853C528.294 913.032 533.232 919.808 538.17 932.181C543.107 943.965 546.656 956.928 548.817 971.069L580.758 1169.05H572.888L544.65 992.281C540.947 969.302 535.855 950.741 529.374 936.6C522.893 922.459 513.944 915.389 502.525 915.389H451.141V1169.05H443.735ZM451.141 901.247H507.154C522.893 901.247 536.009 894.177 546.502 880.036C556.995 865.894 562.241 841.737 562.241 807.562V735.089C562.241 709.753 558.229 691.192 550.205 679.408C542.181 667.035 532.923 660.848 522.43 660.848H451.141V901.247Z" fill="white"/>
<path d="M654.984 1169.05V646.707H768.399V660.848H662.391V887.106H744.79V901.247H662.391V1154.9H768.399V1169.05H654.984Z" fill="white"/>
<path d="M836.398 1169.05V646.707H949.812V660.848H843.805V887.106H926.204V901.247H843.805V1154.9H949.812V1169.05H836.398Z" fill="white"/>
<path d="M1039.11 1169.05V660.848H987.722V646.707H1098.36V660.848H1046.51V1169.05H1039.11Z" fill="white"/>
<path d="M75.4937 553.015C63.7665 553.015 53.1194 550.364 43.5525 545.061C34.2942 540.347 26.8875 529.741 21.3325 513.243C15.7775 496.745 13 471.704 13 438.118V127.897C13 93.7224 15.7775 68.6808 21.3325 52.772C26.8875 36.274 34.4485 25.6681 44.0154 20.9544C53.891 15.6515 64.6923 13 76.4195 13C88.4554 13 99.1025 15.6515 108.361 20.9544C117.928 26.2573 125.489 37.1578 131.044 53.6558C136.599 69.5646 139.376 94.3117 139.376 127.897V205.673H131.97V124.362C131.97 96.0793 129.501 75.1622 124.563 61.6102C119.934 47.4691 113.453 38.3362 105.12 34.2117C96.7879 29.498 87.0666 27.1412 75.9566 27.1412C64.538 27.1412 54.6625 29.7926 46.33 35.0956C37.9975 39.8093 31.5167 49.5313 26.8875 64.2617C22.5669 78.4029 20.4067 100.204 20.4067 129.665V439.886C20.4067 468.168 22.8756 489.38 27.8133 503.521C33.0597 517.662 39.8492 527.09 48.1816 531.804C56.8228 536.517 66.0811 538.874 75.9566 538.874C86.758 538.874 96.325 536.517 104.657 531.804C113.299 527.09 119.934 517.662 124.563 503.521C129.501 489.38 131.97 468.168 131.97 439.886V375.367H139.376V438.118C139.376 472.293 136.599 497.629 131.044 514.127C125.489 530.036 117.928 540.347 108.361 545.061C98.7938 550.364 87.8382 553.015 75.4937 553.015Z" stroke="#D22227" stroke-width="26" mask="url(#path-1-outside-1_148_2)"/>
<path d="M285.883 553.015C263.354 553.015 246.998 544.766 236.814 528.268C226.63 511.181 221.537 481.131 221.537 438.118V127.897C221.537 85.4734 226.63 55.7181 236.814 38.6308C247.306 21.5436 263.971 13 286.809 13C310.572 13 327.237 22.1328 336.804 40.3985C346.679 58.0749 351.617 87.2411 351.617 127.897V438.118C351.617 480.542 346.679 510.297 336.804 527.384C326.928 544.472 309.955 553.015 285.883 553.015ZM286.346 538.874C307.949 538.874 322.916 530.92 331.249 515.011C339.89 499.102 344.21 472.588 344.21 435.467V130.548C344.21 94.0171 339.89 67.797 331.249 51.8882C322.916 35.3902 307.949 27.1412 286.346 27.1412C265.052 27.1412 250.084 35.0956 241.443 51.0043C233.11 66.9131 228.944 93.4278 228.944 130.548V435.467C228.944 473.177 233.265 499.986 241.906 515.895C250.856 531.214 265.669 538.874 286.346 538.874Z" stroke="#D22227" stroke-width="26" mask="url(#path-1-outside-1_148_2)"/>
<path d="M439.214 542.409V20.0706H516.058C529.328 20.0706 540.747 26.552 550.314 39.5147C560.189 51.8882 565.127 73.9837 565.127 105.801V179.159C565.127 203.316 562.813 223.055 558.183 238.375C553.554 253.105 547.691 264.3 540.593 271.96C533.803 279.03 526.551 283.45 518.836 285.217C523.773 286.396 528.711 293.172 533.649 305.545C538.587 317.329 542.136 330.292 544.296 344.433L576.237 542.409H568.368L540.13 365.645C536.426 342.666 531.334 324.105 524.853 309.964C518.373 295.823 509.423 288.753 498.004 288.753H446.621V542.409H439.214ZM446.621 274.611H502.633C518.373 274.611 531.489 267.541 541.981 253.4C552.474 239.258 557.721 215.101 557.721 180.926V108.453C557.721 83.1166 553.709 64.5563 545.685 52.772C537.661 40.3985 528.402 34.2117 517.91 34.2117H446.621V274.611Z" stroke="#D22227" stroke-width="26" mask="url(#path-1-outside-1_148_2)"/>
<path d="M650.464 542.409V20.0706H660.648L773.6 516.779V20.0706H781.006V542.409H771.285L657.87 43.05V542.409H650.464Z" stroke="#D22227" stroke-width="26" mask="url(#path-1-outside-1_148_2)"/>
<path d="M872.563 542.409V20.0706H985.978V34.2117H879.97V260.47H962.369V274.611H879.97V528.268H985.978V542.409H872.563Z" stroke="#D22227" stroke-width="26" mask="url(#path-1-outside-1_148_2)"/>
<path d="M1053.98 542.409V20.0706H1130.82C1144.09 20.0706 1155.51 26.552 1165.08 39.5147C1174.95 51.8882 1179.89 73.9837 1179.89 105.801V179.159C1179.89 203.316 1177.58 223.055 1172.95 238.375C1168.32 253.105 1162.45 264.3 1155.36 271.96C1148.57 279.03 1141.31 283.45 1133.6 285.217C1138.54 286.396 1143.47 293.172 1148.41 305.545C1153.35 317.329 1156.9 330.292 1159.06 344.433L1191 542.409H1183.13L1154.89 365.645C1151.19 342.666 1146.1 324.105 1139.62 309.964C1133.14 295.823 1124.19 288.753 1112.77 288.753H1061.38V542.409H1053.98ZM1061.38 274.611H1117.4C1133.14 274.611 1146.25 267.541 1156.74 253.4C1167.24 239.258 1172.48 215.101 1172.48 180.926V108.453C1172.48 83.1166 1168.47 64.5563 1160.45 52.772C1152.42 40.3985 1143.17 34.2117 1132.67 34.2117H1061.38V274.611Z" stroke="#D22227" stroke-width="26" mask="url(#path-1-outside-1_148_2)"/>
<path d="M164.623 1177C152.896 1177 142.558 1172.58 133.608 1163.74C124.658 1154.32 117.714 1138.41 112.777 1116.02C108.147 1093.63 105.833 1063.28 105.833 1024.98V1014.38H113.239V1024.98C113.239 1060.34 115.4 1088.03 119.72 1108.06C124.349 1128.1 130.522 1142.24 138.237 1150.49C145.952 1158.73 154.748 1162.86 164.623 1162.86C180.98 1162.86 194.558 1154.02 205.36 1136.34C216.161 1118.08 221.562 1085.97 221.562 1040.01C221.562 1009.37 218.784 986.094 213.229 970.186C207.983 953.687 200.731 941.019 191.472 932.181C182.523 923.343 172.647 915.094 161.846 907.434C150.736 899.185 141.014 890.052 132.682 880.036C124.658 869.43 118.332 855.878 113.702 839.38C109.382 822.882 107.222 800.786 107.222 773.093C107.222 733.616 111.696 702.093 120.646 678.524C129.904 654.956 145.181 643.171 166.475 643.171C184.992 643.171 199.651 652.893 210.452 672.337C221.253 691.781 226.654 719.18 226.654 754.533V789.886H219.247V758.068C219.247 726.251 214.618 701.504 205.36 683.827C196.102 666.151 183.14 657.312 166.475 657.312C147.341 657.312 133.916 668.508 126.201 690.898C118.486 712.699 114.628 740.097 114.628 773.093C114.628 800.197 116.943 821.409 121.572 836.728C126.51 852.048 132.836 863.832 140.552 872.081C148.575 880.33 157.062 887.99 166.012 895.061C180.825 906.256 192.861 917.156 202.119 927.762C211.378 938.368 218.167 952.214 222.488 969.302C226.808 985.8 228.969 1009.37 228.969 1040.01C228.969 1073.59 226.037 1100.4 220.173 1120.44C214.618 1140.47 206.903 1154.9 197.027 1163.74C187.46 1172.58 176.659 1177 164.623 1177Z" stroke="#D22227" stroke-width="26" mask="url(#path-1-outside-1_148_2)"/>
<path d="M322.945 1169.05V660.848H271.561V646.707H382.198V660.848H330.352V1169.05H322.945Z" stroke="#D22227" stroke-width="26" mask="url(#path-1-outside-1_148_2)"/>
<path d="M443.735 1169.05V646.707H520.579C533.849 646.707 545.268 653.188 554.835 666.151C564.71 678.524 569.648 700.62 569.648 732.437V805.795C569.648 829.952 567.333 849.691 562.704 865.011C558.075 879.741 552.211 890.936 545.113 898.596C538.324 905.667 531.071 910.086 523.356 911.853C528.294 913.032 533.232 919.808 538.17 932.181C543.107 943.965 546.656 956.928 548.817 971.069L580.758 1169.05H572.888L544.65 992.281C540.947 969.302 535.855 950.741 529.374 936.6C522.893 922.459 513.944 915.389 502.525 915.389H451.141V1169.05H443.735ZM451.141 901.247H507.154C522.893 901.247 536.009 894.177 546.502 880.036C556.995 865.894 562.241 841.737 562.241 807.562V735.089C562.241 709.753 558.229 691.192 550.205 679.408C542.181 667.035 532.923 660.848 522.43 660.848H451.141V901.247Z" stroke="#D22227" stroke-width="26" mask="url(#path-1-outside-1_148_2)"/>
<path d="M654.984 1169.05V646.707H768.399V660.848H662.391V887.106H744.79V901.247H662.391V1154.9H768.399V1169.05H654.984Z" stroke="#D22227" stroke-width="26" mask="url(#path-1-outside-1_148_2)"/>
<path d="M836.398 1169.05V646.707H949.812V660.848H843.805V887.106H926.204V901.247H843.805V1154.9H949.812V1169.05H836.398Z" stroke="#D22227" stroke-width="26" mask="url(#path-1-outside-1_148_2)"/>
<path d="M1039.11 1169.05V660.848H987.722V646.707H1098.36V660.848H1046.51V1169.05H1039.11Z" stroke="#D22227" stroke-width="26" mask="url(#path-1-outside-1_148_2)"/>
</svg>
