<svg width="1133" height="597" viewBox="0 0 1133 597" fill="none" xmlns="http://www.w3.org/2000/svg">
<mask id="path-1-outside-1_93_15" maskUnits="userSpaceOnUse" x="0.309326" y="0.632996" width="1133" height="597" fill="black">
<rect fill="white" x="0.309326" y="0.632996" width="1133" height="597"/>
<path d="M71.7643 278.196C60.795 278.196 50.836 276.897 41.8873 274.299C33.2273 271.99 26.2993 266.794 21.1033 258.711C15.9073 250.628 13.3093 238.36 13.3093 221.906V69.923C13.3093 53.1803 15.9073 40.912 21.1033 33.118C26.2993 25.0353 33.3717 19.8393 42.3203 17.53C51.5577 14.932 61.661 13.633 72.6303 13.633C83.8883 13.633 93.8473 14.932 102.507 17.53C111.456 20.128 118.528 25.4683 123.724 33.551C128.92 41.345 131.518 53.469 131.518 69.923V108.027H124.59V68.191C124.59 54.335 122.281 44.0873 117.662 37.448C113.332 30.52 107.27 26.0457 99.4763 24.025C91.6823 21.7157 82.5893 20.561 72.1973 20.561C61.5167 20.561 52.2793 21.86 44.4853 24.458C36.6913 26.7673 30.6293 31.5303 26.2993 38.747C22.258 45.675 20.2373 56.3557 20.2373 70.789V222.772C20.2373 236.628 22.5467 247.02 27.1653 253.948C32.0727 260.876 38.4233 265.495 46.2173 267.804C54.3 270.113 62.96 271.268 72.1973 271.268C82.3007 271.268 91.2493 270.113 99.0433 267.804C107.126 265.495 113.332 260.876 117.662 253.948C122.281 247.02 124.59 236.628 124.59 222.772V191.163H131.518V221.906C131.518 238.649 128.92 251.061 123.724 259.144C118.528 266.938 111.456 271.99 102.507 274.299C93.5587 276.897 83.311 278.196 71.7643 278.196Z"/>
<path d="M268.557 278.196C247.484 278.196 232.185 274.155 222.659 266.072C213.133 257.701 208.37 242.979 208.37 221.906V69.923C208.37 49.139 213.133 34.5613 222.659 26.19C232.474 17.8187 248.062 13.633 269.423 13.633C291.65 13.633 307.238 18.1073 316.187 27.056C325.424 35.716 330.043 50.005 330.043 69.923V221.906C330.043 242.69 325.424 257.268 316.187 265.639C306.95 274.01 291.073 278.196 268.557 278.196ZM268.99 271.268C289.197 271.268 303.197 267.371 310.991 259.577C319.074 251.783 323.115 238.793 323.115 220.607V71.222C323.115 53.3247 319.074 40.479 310.991 32.685C303.197 24.6023 289.197 20.561 268.99 20.561C249.072 20.561 235.072 24.458 226.989 32.252C219.195 40.046 215.298 53.036 215.298 71.222V220.607C215.298 239.082 219.339 252.216 227.422 260.01C235.793 267.515 249.649 271.268 268.99 271.268Z"/>
<path d="M411.979 273V17.097H483.857C496.269 17.097 506.95 20.2723 515.899 26.623C525.136 32.685 529.755 43.51 529.755 59.098V95.037C529.755 106.872 527.59 116.543 523.26 124.048C518.93 131.265 513.445 136.749 506.806 140.502C500.455 143.966 493.671 146.131 486.455 146.997C491.073 147.574 495.692 150.894 500.311 156.956C504.929 162.729 508.249 169.08 510.27 176.008L540.147 273H532.786L506.373 186.4C502.909 175.142 498.146 166.049 492.084 159.121C486.022 152.193 477.65 148.729 466.97 148.729H418.907V273H411.979ZM418.907 141.801H471.3C486.022 141.801 498.29 138.337 508.105 131.409C517.919 124.481 522.827 112.646 522.827 95.903V60.397C522.827 47.9843 519.074 38.8913 511.569 33.118C504.063 27.056 495.403 24.025 485.589 24.025H418.907V141.801Z"/>
<path d="M609.576 273V17.097H619.102L724.754 260.443V17.097H731.682V273H722.589L616.504 28.355V273H609.576Z"/>
<path d="M817.323 273V17.097H923.408V24.025H824.251V134.873H901.325V141.801H824.251V266.072H923.408V273H817.323Z"/>
<path d="M987.012 273V17.097H1058.89C1071.3 17.097 1081.98 20.2723 1090.93 26.623C1100.17 32.685 1104.79 43.51 1104.79 59.098V95.037C1104.79 106.872 1102.62 116.543 1098.29 124.048C1093.96 131.265 1088.48 136.749 1081.84 140.502C1075.49 143.966 1068.7 146.131 1061.49 146.997C1066.11 147.574 1070.73 150.894 1075.34 156.956C1079.96 162.729 1083.28 169.08 1085.3 176.008L1115.18 273H1107.82L1081.41 186.4C1077.94 175.142 1073.18 166.049 1067.12 159.121C1061.05 152.193 1052.68 148.729 1042 148.729H993.94V273H987.012ZM993.94 141.801H1046.33C1061.06 141.801 1073.32 138.337 1083.14 131.409C1092.95 124.481 1097.86 112.646 1097.86 95.903V60.397C1097.86 47.9843 1094.11 38.8913 1086.6 33.118C1079.1 27.056 1070.44 24.025 1060.62 24.025H993.94V141.801Z"/>
<path d="M155.134 583.897C144.164 583.897 134.494 581.732 126.123 577.402C117.751 572.783 111.256 564.989 106.638 554.02C102.308 543.051 100.143 528.184 100.143 509.421V504.225H107.071V509.421C107.071 526.741 109.091 540.308 113.133 550.123C117.463 559.938 123.236 566.866 130.453 570.907C137.669 574.948 145.896 576.969 155.134 576.969C170.433 576.969 183.134 572.639 193.238 563.979C203.341 555.03 208.393 539.298 208.393 516.782C208.393 501.771 205.795 490.369 200.599 482.575C195.691 474.492 188.908 468.286 180.248 463.956C171.876 459.626 162.639 455.585 152.536 451.832C142.144 447.791 133.051 443.316 125.257 438.409C117.751 433.213 111.834 426.574 107.504 418.491C103.462 410.408 101.442 399.583 101.442 386.016C101.442 366.675 105.627 351.232 113.999 339.685C122.659 328.138 136.948 322.365 156.866 322.365C174.186 322.365 187.897 327.128 198.001 336.654C208.104 346.18 213.156 359.603 213.156 376.923V394.243H206.228V378.655C206.228 363.067 201.898 350.943 193.238 342.283C184.578 333.623 172.454 329.293 156.866 329.293C138.968 329.293 126.411 334.778 119.195 345.747C111.978 356.428 108.37 369.851 108.37 386.016C108.37 399.295 110.535 409.687 114.865 417.192C119.483 424.697 125.401 430.471 132.618 434.512C140.123 438.553 148.061 442.306 156.433 445.77C170.289 451.255 181.547 456.595 190.207 461.791C198.867 466.987 205.217 473.771 209.259 482.142C213.3 490.225 215.321 501.771 215.321 516.782C215.321 533.236 212.578 546.37 207.094 556.185C201.898 566 194.681 573.072 185.444 577.402C176.495 581.732 166.392 583.897 155.134 583.897Z"/>
<path d="M303.224 580V331.025H255.161V324.097H358.648V331.025H310.152V580H303.224Z"/>
<path d="M416.207 580V324.097H488.085C500.498 324.097 511.179 327.272 520.127 333.623C529.365 339.685 533.983 350.51 533.983 366.098V402.037C533.983 413.872 531.818 423.543 527.488 431.048C523.158 438.265 517.674 443.749 511.034 447.502C504.684 450.966 497.9 453.131 490.683 453.997C495.302 454.574 499.921 457.894 504.539 463.956C509.158 469.729 512.478 476.08 514.498 483.008L544.375 580H537.014L510.601 493.4C507.137 482.142 502.374 473.049 496.312 466.121C490.25 459.193 481.879 455.729 471.198 455.729H423.135V580H416.207ZM423.135 448.801H475.528C490.25 448.801 502.519 445.337 512.333 438.409C522.148 431.481 527.055 419.646 527.055 402.903V367.397C527.055 354.984 523.303 345.891 515.797 340.118C508.292 334.056 499.632 331.025 489.817 331.025H423.135V448.801Z"/>
<path d="M613.805 580V324.097H719.89V331.025H620.733V441.873H697.807V448.801H620.733V573.072H719.89V580H613.805Z"/>
<path d="M783.494 580V324.097H889.579V331.025H790.422V441.873H867.496V448.801H790.422V573.072H889.579V580H783.494Z"/>
<path d="M973.102 580V331.025H925.039V324.097H1028.53V331.025H980.03V580H973.102Z"/>
</mask>
<path d="M71.7643 278.196C60.795 278.196 50.836 276.897 41.8873 274.299C33.2273 271.99 26.2993 266.794 21.1033 258.711C15.9073 250.628 13.3093 238.36 13.3093 221.906V69.923C13.3093 53.1803 15.9073 40.912 21.1033 33.118C26.2993 25.0353 33.3717 19.8393 42.3203 17.53C51.5577 14.932 61.661 13.633 72.6303 13.633C83.8883 13.633 93.8473 14.932 102.507 17.53C111.456 20.128 118.528 25.4683 123.724 33.551C128.92 41.345 131.518 53.469 131.518 69.923V108.027H124.59V68.191C124.59 54.335 122.281 44.0873 117.662 37.448C113.332 30.52 107.27 26.0457 99.4763 24.025C91.6823 21.7157 82.5893 20.561 72.1973 20.561C61.5167 20.561 52.2793 21.86 44.4853 24.458C36.6913 26.7673 30.6293 31.5303 26.2993 38.747C22.258 45.675 20.2373 56.3557 20.2373 70.789V222.772C20.2373 236.628 22.5467 247.02 27.1653 253.948C32.0727 260.876 38.4233 265.495 46.2173 267.804C54.3 270.113 62.96 271.268 72.1973 271.268C82.3007 271.268 91.2493 270.113 99.0433 267.804C107.126 265.495 113.332 260.876 117.662 253.948C122.281 247.02 124.59 236.628 124.59 222.772V191.163H131.518V221.906C131.518 238.649 128.92 251.061 123.724 259.144C118.528 266.938 111.456 271.99 102.507 274.299C93.5587 276.897 83.311 278.196 71.7643 278.196Z" fill="white"/>
<path d="M268.557 278.196C247.484 278.196 232.185 274.155 222.659 266.072C213.133 257.701 208.37 242.979 208.37 221.906V69.923C208.37 49.139 213.133 34.5613 222.659 26.19C232.474 17.8187 248.062 13.633 269.423 13.633C291.65 13.633 307.238 18.1073 316.187 27.056C325.424 35.716 330.043 50.005 330.043 69.923V221.906C330.043 242.69 325.424 257.268 316.187 265.639C306.95 274.01 291.073 278.196 268.557 278.196ZM268.99 271.268C289.197 271.268 303.197 267.371 310.991 259.577C319.074 251.783 323.115 238.793 323.115 220.607V71.222C323.115 53.3247 319.074 40.479 310.991 32.685C303.197 24.6023 289.197 20.561 268.99 20.561C249.072 20.561 235.072 24.458 226.989 32.252C219.195 40.046 215.298 53.036 215.298 71.222V220.607C215.298 239.082 219.339 252.216 227.422 260.01C235.793 267.515 249.649 271.268 268.99 271.268Z" fill="white"/>
<path d="M411.979 273V17.097H483.857C496.269 17.097 506.95 20.2723 515.899 26.623C525.136 32.685 529.755 43.51 529.755 59.098V95.037C529.755 106.872 527.59 116.543 523.26 124.048C518.93 131.265 513.445 136.749 506.806 140.502C500.455 143.966 493.671 146.131 486.455 146.997C491.073 147.574 495.692 150.894 500.311 156.956C504.929 162.729 508.249 169.08 510.27 176.008L540.147 273H532.786L506.373 186.4C502.909 175.142 498.146 166.049 492.084 159.121C486.022 152.193 477.65 148.729 466.97 148.729H418.907V273H411.979ZM418.907 141.801H471.3C486.022 141.801 498.29 138.337 508.105 131.409C517.919 124.481 522.827 112.646 522.827 95.903V60.397C522.827 47.9843 519.074 38.8913 511.569 33.118C504.063 27.056 495.403 24.025 485.589 24.025H418.907V141.801Z" fill="white"/>
<path d="M609.576 273V17.097H619.102L724.754 260.443V17.097H731.682V273H722.589L616.504 28.355V273H609.576Z" fill="white"/>
<path d="M817.323 273V17.097H923.408V24.025H824.251V134.873H901.325V141.801H824.251V266.072H923.408V273H817.323Z" fill="white"/>
<path d="M987.012 273V17.097H1058.89C1071.3 17.097 1081.98 20.2723 1090.93 26.623C1100.17 32.685 1104.79 43.51 1104.79 59.098V95.037C1104.79 106.872 1102.62 116.543 1098.29 124.048C1093.96 131.265 1088.48 136.749 1081.84 140.502C1075.49 143.966 1068.7 146.131 1061.49 146.997C1066.11 147.574 1070.73 150.894 1075.34 156.956C1079.96 162.729 1083.28 169.08 1085.3 176.008L1115.18 273H1107.82L1081.41 186.4C1077.94 175.142 1073.18 166.049 1067.12 159.121C1061.05 152.193 1052.68 148.729 1042 148.729H993.94V273H987.012ZM993.94 141.801H1046.33C1061.06 141.801 1073.32 138.337 1083.14 131.409C1092.95 124.481 1097.86 112.646 1097.86 95.903V60.397C1097.86 47.9843 1094.11 38.8913 1086.6 33.118C1079.1 27.056 1070.44 24.025 1060.62 24.025H993.94V141.801Z" fill="white"/>
<path d="M155.134 583.897C144.164 583.897 134.494 581.732 126.123 577.402C117.751 572.783 111.256 564.989 106.638 554.02C102.308 543.051 100.143 528.184 100.143 509.421V504.225H107.071V509.421C107.071 526.741 109.091 540.308 113.133 550.123C117.463 559.938 123.236 566.866 130.453 570.907C137.669 574.948 145.896 576.969 155.134 576.969C170.433 576.969 183.134 572.639 193.238 563.979C203.341 555.03 208.393 539.298 208.393 516.782C208.393 501.771 205.795 490.369 200.599 482.575C195.691 474.492 188.908 468.286 180.248 463.956C171.876 459.626 162.639 455.585 152.536 451.832C142.144 447.791 133.051 443.316 125.257 438.409C117.751 433.213 111.834 426.574 107.504 418.491C103.462 410.408 101.442 399.583 101.442 386.016C101.442 366.675 105.627 351.232 113.999 339.685C122.659 328.138 136.948 322.365 156.866 322.365C174.186 322.365 187.897 327.128 198.001 336.654C208.104 346.18 213.156 359.603 213.156 376.923V394.243H206.228V378.655C206.228 363.067 201.898 350.943 193.238 342.283C184.578 333.623 172.454 329.293 156.866 329.293C138.968 329.293 126.411 334.778 119.195 345.747C111.978 356.428 108.37 369.851 108.37 386.016C108.37 399.295 110.535 409.687 114.865 417.192C119.483 424.697 125.401 430.471 132.618 434.512C140.123 438.553 148.061 442.306 156.433 445.77C170.289 451.255 181.547 456.595 190.207 461.791C198.867 466.987 205.217 473.771 209.259 482.142C213.3 490.225 215.321 501.771 215.321 516.782C215.321 533.236 212.578 546.37 207.094 556.185C201.898 566 194.681 573.072 185.444 577.402C176.495 581.732 166.392 583.897 155.134 583.897Z" fill="white"/>
<path d="M303.224 580V331.025H255.161V324.097H358.648V331.025H310.152V580H303.224Z" fill="white"/>
<path d="M416.207 580V324.097H488.085C500.498 324.097 511.179 327.272 520.127 333.623C529.365 339.685 533.983 350.51 533.983 366.098V402.037C533.983 413.872 531.818 423.543 527.488 431.048C523.158 438.265 517.674 443.749 511.034 447.502C504.684 450.966 497.9 453.131 490.683 453.997C495.302 454.574 499.921 457.894 504.539 463.956C509.158 469.729 512.478 476.08 514.498 483.008L544.375 580H537.014L510.601 493.4C507.137 482.142 502.374 473.049 496.312 466.121C490.25 459.193 481.879 455.729 471.198 455.729H423.135V580H416.207ZM423.135 448.801H475.528C490.25 448.801 502.519 445.337 512.333 438.409C522.148 431.481 527.055 419.646 527.055 402.903V367.397C527.055 354.984 523.303 345.891 515.797 340.118C508.292 334.056 499.632 331.025 489.817 331.025H423.135V448.801Z" fill="white"/>
<path d="M613.805 580V324.097H719.89V331.025H620.733V441.873H697.807V448.801H620.733V573.072H719.89V580H613.805Z" fill="white"/>
<path d="M783.494 580V324.097H889.579V331.025H790.422V441.873H867.496V448.801H790.422V573.072H889.579V580H783.494Z" fill="white"/>
<path d="M973.102 580V331.025H925.039V324.097H1028.53V331.025H980.03V580H973.102Z" fill="white"/>
<path d="M71.7643 278.196C60.795 278.196 50.836 276.897 41.8873 274.299C33.2273 271.99 26.2993 266.794 21.1033 258.711C15.9073 250.628 13.3093 238.36 13.3093 221.906V69.923C13.3093 53.1803 15.9073 40.912 21.1033 33.118C26.2993 25.0353 33.3717 19.8393 42.3203 17.53C51.5577 14.932 61.661 13.633 72.6303 13.633C83.8883 13.633 93.8473 14.932 102.507 17.53C111.456 20.128 118.528 25.4683 123.724 33.551C128.92 41.345 131.518 53.469 131.518 69.923V108.027H124.59V68.191C124.59 54.335 122.281 44.0873 117.662 37.448C113.332 30.52 107.27 26.0457 99.4763 24.025C91.6823 21.7157 82.5893 20.561 72.1973 20.561C61.5167 20.561 52.2793 21.86 44.4853 24.458C36.6913 26.7673 30.6293 31.5303 26.2993 38.747C22.258 45.675 20.2373 56.3557 20.2373 70.789V222.772C20.2373 236.628 22.5467 247.02 27.1653 253.948C32.0727 260.876 38.4233 265.495 46.2173 267.804C54.3 270.113 62.96 271.268 72.1973 271.268C82.3007 271.268 91.2493 270.113 99.0433 267.804C107.126 265.495 113.332 260.876 117.662 253.948C122.281 247.02 124.59 236.628 124.59 222.772V191.163H131.518V221.906C131.518 238.649 128.92 251.061 123.724 259.144C118.528 266.938 111.456 271.99 102.507 274.299C93.5587 276.897 83.311 278.196 71.7643 278.196Z" stroke="#D22227" stroke-width="26" mask="url(#path-1-outside-1_93_15)"/>
<path d="M268.557 278.196C247.484 278.196 232.185 274.155 222.659 266.072C213.133 257.701 208.37 242.979 208.37 221.906V69.923C208.37 49.139 213.133 34.5613 222.659 26.19C232.474 17.8187 248.062 13.633 269.423 13.633C291.65 13.633 307.238 18.1073 316.187 27.056C325.424 35.716 330.043 50.005 330.043 69.923V221.906C330.043 242.69 325.424 257.268 316.187 265.639C306.95 274.01 291.073 278.196 268.557 278.196ZM268.99 271.268C289.197 271.268 303.197 267.371 310.991 259.577C319.074 251.783 323.115 238.793 323.115 220.607V71.222C323.115 53.3247 319.074 40.479 310.991 32.685C303.197 24.6023 289.197 20.561 268.99 20.561C249.072 20.561 235.072 24.458 226.989 32.252C219.195 40.046 215.298 53.036 215.298 71.222V220.607C215.298 239.082 219.339 252.216 227.422 260.01C235.793 267.515 249.649 271.268 268.99 271.268Z" stroke="#D22227" stroke-width="26" mask="url(#path-1-outside-1_93_15)"/>
<path d="M411.979 273V17.097H483.857C496.269 17.097 506.95 20.2723 515.899 26.623C525.136 32.685 529.755 43.51 529.755 59.098V95.037C529.755 106.872 527.59 116.543 523.26 124.048C518.93 131.265 513.445 136.749 506.806 140.502C500.455 143.966 493.671 146.131 486.455 146.997C491.073 147.574 495.692 150.894 500.311 156.956C504.929 162.729 508.249 169.08 510.27 176.008L540.147 273H532.786L506.373 186.4C502.909 175.142 498.146 166.049 492.084 159.121C486.022 152.193 477.65 148.729 466.97 148.729H418.907V273H411.979ZM418.907 141.801H471.3C486.022 141.801 498.29 138.337 508.105 131.409C517.919 124.481 522.827 112.646 522.827 95.903V60.397C522.827 47.9843 519.074 38.8913 511.569 33.118C504.063 27.056 495.403 24.025 485.589 24.025H418.907V141.801Z" stroke="#D22227" stroke-width="26" mask="url(#path-1-outside-1_93_15)"/>
<path d="M609.576 273V17.097H619.102L724.754 260.443V17.097H731.682V273H722.589L616.504 28.355V273H609.576Z" stroke="#D22227" stroke-width="26" mask="url(#path-1-outside-1_93_15)"/>
<path d="M817.323 273V17.097H923.408V24.025H824.251V134.873H901.325V141.801H824.251V266.072H923.408V273H817.323Z" stroke="#D22227" stroke-width="26" mask="url(#path-1-outside-1_93_15)"/>
<path d="M987.012 273V17.097H1058.89C1071.3 17.097 1081.98 20.2723 1090.93 26.623C1100.17 32.685 1104.79 43.51 1104.79 59.098V95.037C1104.79 106.872 1102.62 116.543 1098.29 124.048C1093.96 131.265 1088.48 136.749 1081.84 140.502C1075.49 143.966 1068.7 146.131 1061.49 146.997C1066.11 147.574 1070.73 150.894 1075.34 156.956C1079.96 162.729 1083.28 169.08 1085.3 176.008L1115.18 273H1107.82L1081.41 186.4C1077.94 175.142 1073.18 166.049 1067.12 159.121C1061.05 152.193 1052.68 148.729 1042 148.729H993.94V273H987.012ZM993.94 141.801H1046.33C1061.06 141.801 1073.32 138.337 1083.14 131.409C1092.95 124.481 1097.86 112.646 1097.86 95.903V60.397C1097.86 47.9843 1094.11 38.8913 1086.6 33.118C1079.1 27.056 1070.44 24.025 1060.62 24.025H993.94V141.801Z" stroke="#D22227" stroke-width="26" mask="url(#path-1-outside-1_93_15)"/>
<path d="M155.134 583.897C144.164 583.897 134.494 581.732 126.123 577.402C117.751 572.783 111.256 564.989 106.638 554.02C102.308 543.051 100.143 528.184 100.143 509.421V504.225H107.071V509.421C107.071 526.741 109.091 540.308 113.133 550.123C117.463 559.938 123.236 566.866 130.453 570.907C137.669 574.948 145.896 576.969 155.134 576.969C170.433 576.969 183.134 572.639 193.238 563.979C203.341 555.03 208.393 539.298 208.393 516.782C208.393 501.771 205.795 490.369 200.599 482.575C195.691 474.492 188.908 468.286 180.248 463.956C171.876 459.626 162.639 455.585 152.536 451.832C142.144 447.791 133.051 443.316 125.257 438.409C117.751 433.213 111.834 426.574 107.504 418.491C103.462 410.408 101.442 399.583 101.442 386.016C101.442 366.675 105.627 351.232 113.999 339.685C122.659 328.138 136.948 322.365 156.866 322.365C174.186 322.365 187.897 327.128 198.001 336.654C208.104 346.18 213.156 359.603 213.156 376.923V394.243H206.228V378.655C206.228 363.067 201.898 350.943 193.238 342.283C184.578 333.623 172.454 329.293 156.866 329.293C138.968 329.293 126.411 334.778 119.195 345.747C111.978 356.428 108.37 369.851 108.37 386.016C108.37 399.295 110.535 409.687 114.865 417.192C119.483 424.697 125.401 430.471 132.618 434.512C140.123 438.553 148.061 442.306 156.433 445.77C170.289 451.255 181.547 456.595 190.207 461.791C198.867 466.987 205.217 473.771 209.259 482.142C213.3 490.225 215.321 501.771 215.321 516.782C215.321 533.236 212.578 546.37 207.094 556.185C201.898 566 194.681 573.072 185.444 577.402C176.495 581.732 166.392 583.897 155.134 583.897Z" stroke="#D22227" stroke-width="26" mask="url(#path-1-outside-1_93_15)"/>
<path d="M303.224 580V331.025H255.161V324.097H358.648V331.025H310.152V580H303.224Z" stroke="#D22227" stroke-width="26" mask="url(#path-1-outside-1_93_15)"/>
<path d="M416.207 580V324.097H488.085C500.498 324.097 511.179 327.272 520.127 333.623C529.365 339.685 533.983 350.51 533.983 366.098V402.037C533.983 413.872 531.818 423.543 527.488 431.048C523.158 438.265 517.674 443.749 511.034 447.502C504.684 450.966 497.9 453.131 490.683 453.997C495.302 454.574 499.921 457.894 504.539 463.956C509.158 469.729 512.478 476.08 514.498 483.008L544.375 580H537.014L510.601 493.4C507.137 482.142 502.374 473.049 496.312 466.121C490.25 459.193 481.879 455.729 471.198 455.729H423.135V580H416.207ZM423.135 448.801H475.528C490.25 448.801 502.519 445.337 512.333 438.409C522.148 431.481 527.055 419.646 527.055 402.903V367.397C527.055 354.984 523.303 345.891 515.797 340.118C508.292 334.056 499.632 331.025 489.817 331.025H423.135V448.801Z" stroke="#D22227" stroke-width="26" mask="url(#path-1-outside-1_93_15)"/>
<path d="M613.805 580V324.097H719.89V331.025H620.733V441.873H697.807V448.801H620.733V573.072H719.89V580H613.805Z" stroke="#D22227" stroke-width="26" mask="url(#path-1-outside-1_93_15)"/>
<path d="M783.494 580V324.097H889.579V331.025H790.422V441.873H867.496V448.801H790.422V573.072H889.579V580H783.494Z" stroke="#D22227" stroke-width="26" mask="url(#path-1-outside-1_93_15)"/>
<path d="M973.102 580V331.025H925.039V324.097H1028.53V331.025H980.03V580H973.102Z" stroke="#D22227" stroke-width="26" mask="url(#path-1-outside-1_93_15)"/>
</svg>
